# xmcd
#
# Track frame offsets: 
#        150
#        21861
#        40741
#        68661
#        88222
#        104753
#        129468
#        147763
#        165976
#        181628
#        204202
#
# Disc length: 3176 seconds
#
# Revision: 0
# Processed by: cddbd v1.5.2PL0 Copyright (c) Steve Scherf et al.
# Submitted via: ExactAudioCopyFreeDBPlugin 1.0
#
DISCID=8a0c660b
DTITLE=Born Healer - 'Til the Dawn
DYEAR=2016
DGENRE=Blues
TTITLE0=Pressure valve
TTITLE1=Leaving trunk
TTITLE2='til the dawn
TTITLE3=River
TTITLE4=Trust yourself
TTITLE5=A million miles away
TTITLE6=Brand new day
TTITLE7=Share the ride
TTITLE8=Healing hand
TTITLE9=Never gone
TTITLE10=Since I've been loving you
EXTD=
EXTT0=
EXTT1=
EXTT2=
EXTT3=
EXTT4=
EXTT5=
EXTT6=
EXTT7=
EXTT8=
EXTT9=
EXTT10=
PLAYORDER=
